# xmcd
# 
# Track frame offsets:
#     150
#     3375
#     40487
#     50580
#     64842
#     76537
#     93302
#     110097
#     123092
#     140652
#     150600
#     168940
#     181830
#     209962
# 
# Disc length: 2944
# 
# Revision: 0
# Processed by: cddbd v1.5.2PL0 Copyright (c) Steve Scherf et al.
# Submitted via: fre:ac v1.0.17
# 
DISCID=bc0b7e0e
DTITLE=CARPENTERS - Christmas Collection 2
DYEAR=1984
DGENRE=Pop
TTITLE0=It Came Upon A Midnight Clear
TTITLE1=Overture
TTITLE2=An Old-Fashioned Christmas
TTITLE3=O Holy Night
TTITLE4=Home For The Holidays
TTITLE5=Medley
TTITLE6=Little Altar Boy
TTITLE7=Do You Hear What I Hear?
TTITLE8=My Favorite Things
TTITLE9=He Came Here For Me
TTITLE10=Santa Claus Is Comin' To Town
TTITLE11=What Are You Doing New Year's Eve?
TTITLE12=Selections from "The Nutcracker"
TTITLE13=I Heard The Bells On Christmas Day
EXTD=YEAR: 1984
EXTT0=
EXTT1=
EXTT2=
EXTT3=
EXTT4=
EXTT5=
EXTT6=
EXTT7=
EXTT8=
EXTT9=
EXTT10=
EXTT11=
EXTT12=
EXTT13=
PLAYORDER=
